<svg xmlns="http://www.w3.org/2000/svg" width="281.554" height="37.624" viewBox="0 0 281.554 37.624">
  <defs>
    <style>
      .cls-1 {
        fill: #c80012;
      }

      .cls-2 {
        fill: #001e67;
      }

      .cls-3 {
        fill: #fff;
      }
    </style>
  </defs>
  <g id="그룹_13686" data-name="그룹 13686" transform="translate(-12.776 -22.467)">
    <path id="패스_8278" data-name="패스 8278" class="cls-1" d="M83.593,39.543h1.481c1.346,0,2.585.378,2.585,2.189,0,2.244-1.806,2.948-3.8,2.948H82.517ZM75.352,54.8h5.009l1.4-6.562H84.32c4.528,0,8.357-2.37,8.357-7.072,0-4.748-4.155-5.177-8.276-5.177h-5.01Z" transform="translate(-19.027 -4.111)"/>
    <path id="패스_8279" data-name="패스 8279" class="cls-2" d="M103.944,51.187h-3.636l2.974-5.529h.04ZM93.072,56.851h4.082l1.678-3h5.477l.383,3h3.8l-2.3-14.113h-4.73Z" transform="translate(-24.415 -6.164)"/>
    <path id="패스_8280" data-name="패스 8280" class="cls-2" d="M128.7,46.051a6.4,6.4,0,0,0-3.516-.891c-3.775,0-5.291,2.709-5.291,5.375,0,2.506,1.6,3.678,3.857,3.678a7.918,7.918,0,0,0,3.576-.787l-.4,3.02a13.678,13.678,0,0,1-3.757.545c-4.546,0-7.15-2.679-7.15-6.559,0-4.7,3.292-8.051,8.584-8.051a13.931,13.931,0,0,1,4.989.744Z" transform="translate(-31.391 -6.055)"/>
    <path id="패스_8281" data-name="패스 8281" class="cls-2" d="M138.272,42.738h3.8L139.14,56.851h-3.8Z" transform="translate(-37.268 -6.164)"/>
    <path id="패스_8282" data-name="패스 8282" class="cls-2" d="M148.493,42.744h9.437l-.527,2.667h-5.739l-.706,3.068h5.535l-.544,2.668h-5.456L149.3,56.853h-3.8Z" transform="translate(-40.357 -6.165)"/>
    <path id="패스_8283" data-name="패스 8283" class="cls-2" d="M164.69,42.738h3.8l-2.929,14.113h-3.8Z" transform="translate(-45.301 -6.164)"/>
    <path id="패스_8284" data-name="패스 8284" class="cls-2" d="M184.637,46.051a6.4,6.4,0,0,0-3.515-.891c-3.778,0-5.292,2.709-5.292,5.375,0,2.506,1.594,3.678,3.858,3.678a7.912,7.912,0,0,0,3.575-.787l-.4,3.02a13.676,13.676,0,0,1-3.759.545c-4.543,0-7.15-2.679-7.15-6.559,0-4.7,3.293-8.051,8.586-8.051a13.954,13.954,0,0,1,4.989.744Z" transform="translate(-48.399 -6.055)"/>
    <path id="패스_8285" data-name="패스 8285" class="cls-1" d="M202.713,35.994h5.064L203.87,54.81h-5.064Z" transform="translate(-56.565 -4.113)"/>
    <path id="패스_8286" data-name="패스 8286" class="cls-2" d="M221.9,45.822a7.082,7.082,0,0,0-3.112-.648c-1.5,0-2.719.223-2.719,1.358,0,2.01,5.486,1.258,5.486,5.563,0,3.9-3.616,4.91-6.9,4.91a15.881,15.881,0,0,1-4.362-.724l.889-2.867a7.334,7.334,0,0,0,3.473.812c1.173,0,3.021-.224,3.021-1.686,0-2.275-5.485-1.42-5.485-5.419,0-3.638,3.19-4.727,6.294-4.727a11.476,11.476,0,0,1,4.323.624Z" transform="translate(-60.056 -6.059)"/>
    <path id="패스_8287" data-name="패스 8287" class="cls-2" d="M231.513,42.753h3.816l-2.342,11.333h5.894l-.585,2.78h-9.711Z" transform="translate(-65.619 -6.168)"/>
    <path id="패스_8288" data-name="패스 8288" class="cls-2" d="M251.582,51.2h-3.638l2.977-5.53h.039Zm-10.873,5.662h4.084l1.678-3h5.474l.385,3h3.8l-2.3-14.112H249.1Z" transform="translate(-69.306 -6.168)"/>
    <path id="패스_8289" data-name="패스 8289" class="cls-2" d="M267.135,42.753h4.7l2.888,9.784h.042l1.979-9.784H280.3l-2.987,14.112h-4.686L269.68,47.1h-.04l-1.959,9.765h-3.553Z" transform="translate(-76.427 -6.168)"/>
    <path id="패스_8290" data-name="패스 8290" class="cls-2" d="M293.846,45.532h.93c2.3,0,4.081.547,4.081,3.139,0,2.639-1.434,5.415-5.132,5.415h-1.657Zm-6.179,11.333h6.08c5.293,0,8.987-2.539,8.987-8.456,0-3.764-2.706-5.656-7.19-5.656h-4.888Z" transform="translate(-83.584 -6.168)"/>
    <path id="패스_8291" data-name="패스 8291" class="cls-2" d="M320.828,45.822a7.067,7.067,0,0,0-3.109-.648c-1.5,0-2.721.223-2.721,1.358,0,2.01,5.487,1.258,5.487,5.563,0,3.9-3.616,4.91-6.9,4.91a15.85,15.85,0,0,1-4.362-.724l.887-2.867a7.343,7.343,0,0,0,3.475.812c1.172,0,3.021-.224,3.021-1.686,0-2.275-5.485-1.42-5.485-5.419,0-3.638,3.187-4.727,6.294-4.727a11.455,11.455,0,0,1,4.32.624Z" transform="translate(-90.139 -6.059)"/>
    <path id="패스_8292" data-name="패스 8292" class="cls-1" d="M353.309,40.379a8.829,8.829,0,0,0-4.688-1.139c-5.035,0-7.055,3.568-7.055,7.13,0,3.35,2.127,4.915,5.145,4.915a10.509,10.509,0,0,0,4.764-1.054l-.537,4.033a18.275,18.275,0,0,1-5.01.726c-6.059,0-9.528-3.571-9.528-8.755,0-6.261,4.384-10.7,11.44-10.7a18.652,18.652,0,0,1,6.653.993Z" transform="translate(-98.403 -3.973)"/>
    <path id="패스_8293" data-name="패스 8293" class="cls-2" d="M364.06,42.753h3.816l-2.343,11.332h5.9l-.587,2.78h-9.711Z" transform="translate(-105.923 -6.168)"/>
    <path id="패스_8294" data-name="패스 8294" class="cls-2" d="M390.168,49.332c-.928,4.5-2.021,7.782-7.149,7.782-3.168,0-5.641-1.128-5.641-4.44a12.582,12.582,0,0,1,.3-2.675l1.59-7.246h3.808l-1.694,8a9.437,9.437,0,0,0-.265,1.542,1.879,1.879,0,0,0,2,2.045c2.424,0,2.808-2.915,3.293-5.187l1.391-6.4h3.739Z" transform="translate(-110.862 -6.168)"/>
    <path id="패스_8295" data-name="패스 8295" class="cls-2" d="M404.506,45.422h.972c1.441,0,2.371.184,2.371,1.322,0,.974-.93,1.6-2.5,1.6h-1.416Zm-6.094,11.439,6.423.013c3.2-.038,5.755-1.547,5.755-4.539,0-1.56-1.107-2.483-2.716-2.724v-.04c2.244-.261,3.714-1.672,3.714-3.581,0-2.669-2.517-3.235-3.963-3.235h-6.263Zm4.969-5.984h.911c1.669,0,2.556.184,2.556,1.418,0,1.374-1.271,1.9-3.173,1.9h-1.007Z" transform="translate(-117.258 -6.169)"/>
    <g id="그룹_13690" data-name="그룹 13690" transform="translate(12.776 22.467)">
      <g id="그룹_13689" data-name="그룹 13689">
        <g id="그룹_13686-2" data-name="그룹 13686" transform="translate(0.942 24.709)">
          <path id="패스_8296" data-name="패스 8296" class="cls-2" d="M23.232,70.855a18.82,18.82,0,0,0,23.068,0Z" transform="translate(-16.898 -61.889)"/>
          <path id="패스_8297" data-name="패스 8297" class="cls-2" d="M15.649,61.386h32.7a18.661,18.661,0,0,0,1.518-3.414H14.13A18.761,18.761,0,0,0,15.649,61.386Z" transform="translate(-14.13 -57.972)"/>
          <path id="패스_8298" data-name="패스 8298" class="cls-2" d="M48.642,64.416H17.259a19.056,19.056,0,0,0,2.9,3.417H45.742A19.01,19.01,0,0,0,48.642,64.416Z" transform="translate(-15.081 -59.931)"/>
        </g>
        <g id="그룹_13687" data-name="그룹 13687">
          <path id="패스_8299" data-name="패스 8299" class="cls-1" d="M17.993,36.317c0-4.818,1.894-7.93,5.162-10.983l0,0A18.839,18.839,0,0,0,13.4,46.978H25.436l-.006,0C22.844,45.477,17.993,41.764,17.993,36.317Z" transform="translate(-12.776 -23.338)"/>
          <path id="패스_8300" data-name="패스 8300" class="cls-1" d="M55.731,41.28a18.815,18.815,0,0,0-18.81-18.813,18.486,18.486,0,0,0-6.607,1.2v0c2.65,2.088,6.879,5.428,8.283,6.834-2.521,1.874-8.773,7.864-2.377,14.562-1.883-5.593-1.61-9.943,4.717-12.654A51.056,51.056,0,0,1,46.057,36.6c-2.812.4-8.549,3.242-7.193,9.506v0H55.1A18.853,18.853,0,0,0,55.731,41.28Z" transform="translate(-18.109 -22.467)"/>
        </g>
        <g id="그룹_13688" data-name="그룹 13688" transform="translate(0.625 1.203)">
          <path id="패스_8301" data-name="패스 8301" class="cls-3" d="M33.805,46.633v0h0c-1.356-6.263,4.38-9.1,7.193-9.506a51.056,51.056,0,0,0-5.119-4.185c-6.327,2.711-6.6,7.061-4.717,12.654-6.4-6.7-.144-12.688,2.377-14.562-1.4-1.406-5.633-4.748-8.283-6.835a15.624,15.624,0,0,0-1.827.793c-3.268,3.052-5.162,6.165-5.162,10.983,0,5.446,4.851,9.161,7.437,10.657h0l.006,0H13.674c.1.361.2.718.317,1.069H49.73q.172-.527.317-1.069Z" transform="translate(-13.674 -24.195)"/>
          <path id="패스_8302" data-name="패스 8302" class="cls-3" d="M16.971,63.948H48.355q.347-.524.658-1.07h-32.7Q16.623,63.423,16.971,63.948Z" transform="translate(-14.476 -35.957)"/>
          <path id="패스_8303" data-name="패스 8303" class="cls-3" d="M22.682,70.39H45.753c.434-.335.851-.692,1.255-1.064H21.427C21.829,69.7,22.248,70.055,22.682,70.39Z" transform="translate(-16.031 -37.918)"/>
        </g>
      </g>
    </g>
  </g>
</svg>
